<svg xmlns="http://www.w3.org/2000/svg" viewBox="226.45 335.98 314.67 388.83"><metadata xmlns:fl="https://football-logos.cc/australia/western-sydney-wanderers">dl1_2b0607e9a14c03a6f5c20d501971a503fe647d800190138ea95c7d6f373e4804</metadata><!-- Source: https://football-logos.cc --><defs data-source="https://football-logos.cc"><clipPath id="a" clipPathUnits="userSpaceOnUse"><path d="M1.15 0H794.85v1122.52H1.15Z"></path></clipPath><clipPath id="b" clipPathUnits="userSpaceOnUse"><path d="M0 841.89h595.276V0H0Z"></path></clipPath><clipPath id="c" clipPathUnits="userSpaceOnUse"><path d="M0 841.89h595.276V0H0Z"></path></clipPath><clipPath id="d" clipPathUnits="userSpaceOnUse"><path d="M0 841.89h595.276V0H0Z"></path></clipPath><clipPath id="e" clipPathUnits="userSpaceOnUse"><path d="M0 841.89h595.276V0H0Z"></path></clipPath><clipPath id="f" clipPathUnits="userSpaceOnUse"><path d="M0 841.89h595.276V0H0Z"></path></clipPath><clipPath id="g" clipPathUnits="userSpaceOnUse"><path d="M0 841.89h595.276V0H0Z"></path></clipPath><clipPath id="h" clipPathUnits="userSpaceOnUse"><path d="M0 841.89h595.276V0H0Z"></path></clipPath><clipPath id="i" clipPathUnits="userSpaceOnUse"><path d="M0 841.89h595.276V0H0Z"></path></clipPath><clipPath id="j" clipPathUnits="userSpaceOnUse"><path d="M0 841.89h595.276V0H0Z"></path></clipPath><clipPath id="k" clipPathUnits="userSpaceOnUse"><path d="M0 841.89h595.276V0H0Z"></path></clipPath><clipPath id="l" clipPathUnits="userSpaceOnUse"><path d="M0 841.89h595.276V0H0Z"></path></clipPath><clipPath id="m" clipPathUnits="userSpaceOnUse"><path d="M0 841.89h595.276V0H0Z"></path></clipPath><clipPath id="n" clipPathUnits="userSpaceOnUse"><path d="M0 841.89h595.276V0H0Z"></path></clipPath><clipPath id="o" clipPathUnits="userSpaceOnUse"><path d="M0 841.89h595.276V0H0Z"></path></clipPath><clipPath id="p" clipPathUnits="userSpaceOnUse"><path d="M0 841.89h595.276V0H0Z"></path></clipPath><clipPath id="q" clipPathUnits="userSpaceOnUse"><path d="M0 841.89h595.276V0H0Z"></path></clipPath><clipPath id="r" clipPathUnits="userSpaceOnUse"><path d="M0 841.89h595.276V0H0Z"></path></clipPath><clipPath id="s" clipPathUnits="userSpaceOnUse"><path d="M0 841.89h595.276V0H0Z"></path></clipPath><clipPath id="t" clipPathUnits="userSpaceOnUse"><path d="M0 841.89h595.276V0H0Z"></path></clipPath><clipPath id="u" clipPathUnits="userSpaceOnUse"><path d="M0 841.89h595.276V0H0Z"></path></clipPath><clipPath id="v" clipPathUnits="userSpaceOnUse"><path d="M0 841.89h595.276V0H0Z"></path></clipPath><clipPath id="w" clipPathUnits="userSpaceOnUse"><path d="M0 841.89h595.276V0H0Z"></path></clipPath><clipPath id="x" clipPathUnits="userSpaceOnUse"><path d="M0 841.89h595.276V0H0Z"></path></clipPath><clipPath id="y" clipPathUnits="userSpaceOnUse"><path d="M0 841.89h595.276V0H0Z"></path></clipPath><clipPath id="z" clipPathUnits="userSpaceOnUse"><path d="M0 841.89h595.276V0H0Z"></path></clipPath><clipPath id="A" clipPathUnits="userSpaceOnUse"><path d="M0 841.89h595.276V0H0Z"></path></clipPath><clipPath id="B" clipPathUnits="userSpaceOnUse"><path d="M0 841.89h595.276V0H0Z"></path></clipPath><clipPath id="C" clipPathUnits="userSpaceOnUse"><path d="M0 841.89h595.276V0H0Z"></path></clipPath><clipPath id="D" clipPathUnits="userSpaceOnUse"><path d="M0 841.89h595.276V0H0Z"></path></clipPath><clipPath id="E" clipPathUnits="userSpaceOnUse"><path d="M0 841.89h595.276V0H0Z"></path></clipPath><clipPath id="F" clipPathUnits="userSpaceOnUse"><path d="M0 841.89h595.276V0H0Z"></path></clipPath><clipPath id="G" clipPathUnits="userSpaceOnUse"><path d="M0 841.89h595.276V0H0Z"></path></clipPath><clipPath id="H" clipPathUnits="userSpaceOnUse"><path d="M0 841.89h595.276V0H0Z"></path></clipPath><clipPath id="I" clipPathUnits="userSpaceOnUse"><path d="M0 841.89h595.276V0H0Z"></path></clipPath><clipPath id="J" clipPathUnits="userSpaceOnUse"><path d="M0 841.89h595.276V0H0Z"></path></clipPath><clipPath id="K" clipPathUnits="userSpaceOnUse"><path d="M0 841.89h595.276V0H0Z"></path></clipPath><clipPath id="L" clipPathUnits="userSpaceOnUse"><path d="M0 841.89h595.276V0H0Z"></path></clipPath><clipPath id="M" clipPathUnits="userSpaceOnUse"><path d="M0 841.89h595.276V0H0Z"></path></clipPath><clipPath id="N" clipPathUnits="userSpaceOnUse"><path d="M0 841.89h595.276V0H0Z"></path></clipPath><clipPath id="O" clipPathUnits="userSpaceOnUse"><path d="M0 841.89h595.276V0H0Z"></path></clipPath><clipPath id="P" clipPathUnits="userSpaceOnUse"><path d="M0 841.89h595.276V0H0Z"></path></clipPath><clipPath id="Q" clipPathUnits="userSpaceOnUse"><path d="M0 841.89h595.276V0H0Z"></path></clipPath><clipPath id="R" clipPathUnits="userSpaceOnUse"><path d="M0 841.89h595.276V0H0Z"></path></clipPath><clipPath id="S" clipPathUnits="userSpaceOnUse"><path d="M0 841.89h595.276V0H0Z"></path></clipPath><clipPath id="T" clipPathUnits="userSpaceOnUse"><path d="M0 841.89h595.276V0H0Z"></path></clipPath></defs><g clip-path="url(#a)" data-source="https://football-logos.cc"><path d="M287.84 533.723c65.17 0 118-52.83 118-117.999 0-65.17-52.83-118-118-118s-118 52.83-118 118c0 65.169 52.83 117.999 118 117.999" clip-path="url(#b)" style="fill:#141006;fill-opacity:1;fill-rule:nonzero;stroke:none" transform="matrix(1.33333 0 0 -1.33333 0 1121.779)"></path><path d="M287.84 521.723c58.542 0 106-47.458 106-105.999 0-58.543-47.458-106-106-106s-106 47.457-106 106c0 58.541 47.458 105.999 106 105.999" clip-path="url(#c)" style="fill:#fff;fill-opacity:1;fill-rule:nonzero;stroke:none" transform="matrix(1.33333 0 0 -1.33333 0 1121.779)"></path><path d="M287.84 512.723c53.572 0 97-43.429 97-96.999 0-53.573-43.428-97-97-97s-97 43.427-97 97c0 53.57 43.428 96.999 97 96.999" clip-path="url(#d)" style="fill:#c70b30;fill-opacity:1;fill-rule:nonzero;stroke:none" transform="matrix(1.33333 0 0 -1.33333 0 1121.779)"></path><path d="m228.698 471.548 6.694-2.749-5.033 10.871-1.463-1.548 2.699-5.717-6.749 2.785 3.159-6.581-5.859 2.373-1.464-1.548 11.136-4.415z" clip-path="url(#e)" style="fill:#fff;fill-opacity:1;fill-rule:nonzero;stroke:none" transform="matrix(1.33333 0 0 -1.33333 0 1121.779)"></path><path d="m243.72 477.257-1.151 1.474-3.004-2.344-1.646 2.108 2.917 2.277-1.151 1.474-2.917-2.276-1.089 1.393 3.005 2.345-1.151 1.476-4.555-3.558 6.187-7.925z" clip-path="url(#f)" style="fill:#fff;fill-opacity:1;fill-rule:nonzero;stroke:none" transform="matrix(1.33333 0 0 -1.33333 0 1121.779)"></path><path d="M244.643 484.056c.282 0 .587.025.964.077l.687.101c.209.032.481.07.739.07.552 0 .889-.165 1.122-.547.406-.668.238-1.486-.382-1.864-.657-.399-1.498-.213-1.876.427l-.259.439-1.515-1.423.237-.295c.664-.823 1.621-1.295 2.627-1.295.588 0 1.172.165 1.686.478 1.637.995 2.137 2.954 1.162 4.555-.606 1-1.49 1.483-2.703 1.483-.333 0-.699-.033-1.118-.108l-.703-.124c-.911-.167-1.248.085-1.364.273-.305.503.094 1.114.502 1.362.451.274.817.278 1.315.015l.361-.193.874 1.663-.347.195c-1.021.574-2.171.556-3.168-.049-1.296-.789-2.163-2.464-1.219-4.017.502-.824 1.279-1.223 2.378-1.223" clip-path="url(#g)" style="fill:#fff;fill-opacity:1;fill-rule:nonzero;stroke:none" transform="matrix(1.33333 0 0 -1.33333 0 1121.779)"></path><path d="m251.776 491.432 3.438-7.425 1.786.827-3.437 7.425 1.988.921-.785 1.697-5.765-2.669.785-1.697z" clip-path="url(#h)" style="fill:#fff;fill-opacity:1;fill-rule:nonzero;stroke:none" transform="matrix(1.33333 0 0 -1.33333 0 1121.779)"></path><path d="m267.09 488.558-.584 1.775-3.62-1.189-.835 2.542 3.515 1.155-.584 1.777-3.515-1.155-.552 1.68 3.62 1.189-.584 1.776-5.491-1.803 3.141-9.552z" clip-path="url(#i)" style="fill:#fff;fill-opacity:1;fill-rule:nonzero;stroke:none" transform="matrix(1.33333 0 0 -1.33333 0 1121.779)"></path><path d="M271.5 497.903c1.008 0 1.23-.499 1.314-.93.102-.506-.01-.852-.352-1.123-.371-.295-.931-.43-1.347-.513l-.513 2.47c.34.063.644.096.898.096m0 1.86a9 9 0 0 1-1.411-.16l-1.764-.353 1.956-9.878 1.924.385-.705 3.624 3.239-3.111 2.373.449-3.784 3.528c1.063.623 1.607 1.824 1.347 3.143-.208 1.044-.93 1.91-1.892 2.245-.386.127-.832.146-1.283.128" clip-path="url(#j)" style="fill:#fff;fill-opacity:1;fill-rule:nonzero;stroke:none" transform="matrix(1.33333 0 0 -1.33333 0 1121.779)"></path><path d="m279.33 491.034 1.966.101-.325 6.268 7.302-6.898-.573 11.033-1.965-.103.322-6.205-7.303 6.896.576-11.093z" clip-path="url(#k)" style="fill:#fff;fill-opacity:1;fill-rule:nonzero;stroke:none" transform="matrix(1.33333 0 0 -1.33333 0 1121.779)"></path><path d="M300.699 490.072a4 4 0 0 1 .635-.055c1.63 0 2.963 1.118 3.241 2.719.327 1.888-.884 2.89-1.973 3.553l-.612.368c-.844.504-.888.871-.847 1.103.098.573.769.783 1.272.697.52-.092.8-.33 1.002-.856l.146-.383 1.752.678-.133.375c-.39 1.103-1.272 1.849-2.418 2.048a3.7 3.7 0 0 1-.626.054c-1.519 0-2.699-.915-2.935-2.277-.264-1.515.741-2.396 1.761-3.062l.584-.376c.777-.492 1.204-.911 1.088-1.584-.131-.757-.788-1.278-1.515-1.152a1.42 1.42 0 0 0-.931.573 1.28 1.28 0 0 0-.201.982l.093.501-2.076-.074-.016-.379c-.069-1.716 1.072-3.17 2.709-3.453" clip-path="url(#l)" style="fill:#fff;fill-opacity:1;fill-rule:nonzero;stroke:none" transform="matrix(1.33333 0 0 -1.33333 0 1121.779)"></path><path d="m309.04 488.34 1.882-.577 1.268 4.128 4.855 4.51-2.167.666-2.98-2.782-.904 3.976-2.166.666 1.481-6.459z" clip-path="url(#m)" style="fill:#fff;fill-opacity:1;fill-rule:nonzero;stroke:none" transform="matrix(1.33333 0 0 -1.33333 0 1121.779)"></path><path d="M321.426 492.55c1.101-.51 1.864-1.156 2.277-1.86.471-.8.443-1.672-.032-2.693-.56-1.206-1.379-1.796-2.566-1.796-.693 0-1.48.21-2.341.609zm-1.026 2.502-4.234-9.108 2.085-.962c.989-.458 1.962-.706 2.887-.706 1.934 0 3.486 1.064 4.361 2.951 1.274 2.745.099 5.434-2.982 6.863z" clip-path="url(#n)" style="fill:#fff;fill-opacity:1;fill-rule:nonzero;stroke:none" transform="matrix(1.33333 0 0 -1.33333 0 1121.779)"></path><path d="m327.49 480.143 3.471 5.228 1.756-9.89 6.111 9.201-1.639 1.089-3.437-5.177-1.757 9.891-6.145-9.253z" clip-path="url(#o)" style="fill:#fff;fill-opacity:1;fill-rule:nonzero;stroke:none" transform="matrix(1.33333 0 0 -1.33333 0 1121.779)"></path><path d="m340.279 470.227 1.244 1.398-2.849 2.531 1.776 2 2.767-2.458 1.242 1.399-2.767 2.456 1.174 1.322 2.849-2.53 1.244 1.398-4.32 3.838-6.678-7.516z" clip-path="url(#p)" style="fill:#fff;fill-opacity:1;fill-rule:nonzero;stroke:none" transform="matrix(1.33333 0 0 -1.33333 0 1121.779)"></path><path d="m345.26 464.865 3.242 2.849 6.492 1.301-1.496 1.702-3.993-.808 1.311 3.856-1.495 1.701-2.119-6.273-3.241-2.85z" clip-path="url(#q)" style="fill:#fff;fill-opacity:1;fill-rule:nonzero;stroke:none" transform="matrix(1.33333 0 0 -1.33333 0 1121.779)"></path><path d="M285.32 365.103v1.683h-6.354v-9.648h1.882v3.918h3.807v1.675h-3.807v2.372z" clip-path="url(#r)" style="fill:#fff;fill-opacity:1;fill-rule:nonzero;stroke:none" transform="matrix(1.33333 0 0 -1.33333 0 1121.779)"></path><path d="M293.99 365.192c.951 0 1.44-.595 1.626-1.369h1.91c-.336 2.016-1.745 3.047-3.549 3.047-1.056 0-1.923-.377-2.604-1.055-.974-.974-.947-2.183-.947-3.852 0-1.663-.027-2.868.947-3.845.682-.679 1.549-1.058 2.604-1.058 1.789 0 3.213 1.033 3.549 3.05h-1.91c-.186-.775-.675-1.371-1.626-1.371-.514 0-.933.19-1.205.5-.367.407-.476.871-.476 2.724 0 1.86.109 2.317.476 2.725.272.314.691.504 1.205.504" clip-path="url(#s)" style="fill:#fff;fill-opacity:1;fill-rule:nonzero;stroke:none" transform="matrix(1.33333 0 0 -1.33333 0 1121.779)"></path><path d="m252.866 348.063-1.792 1.152-5.121-3.712 1.496 7.15-5.888-4.328 1.252 6.199-1.79 1.151-2.29-11.765 5.843 4.278-1.469-7.088z" clip-path="url(#t)" style="fill:#fff;fill-opacity:1;fill-rule:nonzero;stroke:none" transform="matrix(1.33333 0 0 -1.33333 0 1121.779)"></path><path d="m256.847 342.624.032-2.533-1.86.801zm1.764 4.169-8.949-8.179 1.956-.834 1.892 1.732 3.4-1.476.064-2.533 1.956-.834-.321 12.122z" clip-path="url(#u)" style="fill:#fff;fill-opacity:1;fill-rule:nonzero;stroke:none" transform="matrix(1.33333 0 0 -1.33333 0 1121.779)"></path><path d="m271.19 335.323-5.052 8.673-2.576-10.801 1.913-.456 1.455 6.1 5.05-8.672 2.562 10.74-1.913.457z" clip-path="url(#v)" style="fill:#fff;fill-opacity:1;fill-rule:nonzero;stroke:none" transform="matrix(1.33333 0 0 -1.33333 0 1121.779)"></path><path d="M280.888 338.292c2.628-.174 3.889-1.313 3.752-3.398-.128-1.93-1.345-2.919-3.624-2.919-.18 0-.363.02-.545.032zm-1.828 2.021-.674-10.039 2.278-.16c.187-.011.361 0 .544 0 3.132 0 5.196 1.776 5.389 4.683.2 3.016-1.843 5.132-5.228 5.356z" clip-path="url(#w)" style="fill:#fff;fill-opacity:1;fill-rule:nonzero;stroke:none" transform="matrix(1.33333 0 0 -1.33333 0 1121.779)"></path><path d="m293.47 331.883-.204 2.666 3.684.282-.142 1.865-3.686-.283-.134 1.764 3.793.289-.141 1.865-5.756-.441.766-10.021 5.756.441-.142 1.863z" clip-path="url(#x)" style="fill:#fff;fill-opacity:1;fill-rule:nonzero;stroke:none" transform="matrix(1.33333 0 0 -1.33333 0 1121.779)"></path><path d="M304.084 339.671c.777.012 1.148-.266 1.283-.899.109-.503.018-.845-.321-1.122-.365-.298-.931-.454-1.347-.546l-.545 2.471c.347.069.671.092.93.096m-.064 1.892c-.452-.025-.923-.121-1.411-.224l-1.764-.385 2.116-9.814 1.925.418-.77 3.591 3.271-3.08 2.373.514-3.848 3.432c1.055.64 1.598 1.89 1.315 3.207a2.92 2.92 0 0 1-1.924 2.181 3.7 3.7 0 0 1-1.283.16" clip-path="url(#y)" style="fill:#fff;fill-opacity:1;fill-rule:nonzero;stroke:none" transform="matrix(1.33333 0 0 -1.33333 0 1121.779)"></path><path d="m315.46 336.394-.905 2.517 3.476 1.254-.633 1.76-3.478-1.254-.599 1.664 3.581 1.291-.632 1.758-5.432-1.955 3.406-9.461 5.432 1.957-.635 1.76z" clip-path="url(#z)" style="fill:#fff;fill-opacity:1;fill-rule:nonzero;stroke:none" transform="matrix(1.33333 0 0 -1.33333 0 1121.779)"></path><path d="M323.933 346.823c.544.078.932-.123 1.186-.609.417-.801.069-1.42-1.186-2.084l-1.187 2.244c.465.236.859.402 1.187.449m.287 1.93c-.934 0-1.79-.447-2.47-.802l-1.604-.834 4.651-8.915 1.764.93-1.732 3.271 4.009-2.085 2.148 1.091-4.617 2.309c.842.899 1.006 2.208.385 3.4-.493.943-1.42 1.584-2.438 1.635z" clip-path="url(#A)" style="fill:#fff;fill-opacity:1;fill-rule:nonzero;stroke:none" transform="matrix(1.33333 0 0 -1.33333 0 1121.779)"></path><path d="M335.42 351.133a6 6 0 0 1-1.393-.191l-.692-.171a3 3 0 0 0-.698-.102c-.43 0-.594.162-.68.285-.18.254-.146.527-.09.713.082.262.269.514.5.678.438.304.793.332 1.309.1l.375-.167.762 1.717-.358.17a3.07 3.07 0 0 1-3.156-.258c-.66-.463-1.133-1.11-1.335-1.824a2.62 2.62 0 0 1 .384-2.262c.506-.722 1.216-1.074 2.17-1.074.353 0 .744.049 1.237.152l.68.145c.272.062.59.123.889.123.457 0 .764-.146.996-.475.45-.639.335-1.466-.257-1.883-.626-.439-1.481-.311-1.899.301l-.287.42-1.418-1.518.257-.279c.659-.715 1.569-1.127 2.495-1.127.663 0 1.305.207 1.859.596 1.567 1.102 1.938 3.088.861 4.619-.621.883-1.441 1.312-2.511 1.312" clip-path="url(#B)" style="fill:#fff;fill-opacity:1;fill-rule:nonzero;stroke:none" transform="matrix(1.33333 0 0 -1.33333 0 1121.779)"></path><path d="M263.15 441.53c-.104-5.396 1.609-10.306 4.855-14.423.148-.186.293-.373.447-.556l5.803 9.939a9 9 0 0 0-.318.78c-.486 1.337-.618 2.641-.59 4.143.144 7.46 6.911 13.923 15.346 13.923 8.434 0 15.13-6.265 15.416-14.314l6.669 11.457a.78.78 0 0 1 .017.745c-4.348 7.359-12.465 12.287-21.904 12.287-14.019 0-25.49-10.809-25.741-23.981" clip-path="url(#C)" style="fill:#fff;fill-opacity:1;fill-rule:nonzero;stroke:none" transform="matrix(1.33333 0 0 -1.33333 0 1121.779)"></path><path d="m303.55 403.733 7.243-12.401a23.6 23.6 0 0 1 2.311 10.183c0 11.979-8.928 21.422-22.453 24.065l-5.354-9.17c9.278-1.235 15.012-7.456 18.253-12.677" clip-path="url(#D)" style="fill:#fff;fill-opacity:1;fill-rule:nonzero;stroke:none" transform="matrix(1.33333 0 0 -1.33333 0 1121.779)"></path><path d="M289.619 387.282a16 16 0 0 0-1.914-.125c-6.351 0-11.952 3.647-14.331 8.821l-5.423-9.286a.78.78 0 0 1 .086-.91l.046-.062c4.709-5.326 11.743-8.724 19.624-8.724 2.542 0 4.996.366 7.314 1.039l-5.4 9.248z" clip-path="url(#E)" style="fill:#fff;fill-opacity:1;fill-rule:nonzero;stroke:none" transform="matrix(1.33333 0 0 -1.33333 0 1121.779)"></path><path d="M291.561 430.243a41 41 0 0 0 4.029-1.025l.248-.076c3.35-1.04 6.426-2.483 9.156-4.302l-15.559 26.637a.782.782 0 0 1-1.351 0l-23.544-40.331h-.001l-23.667 40.519a.79.79 0 0 1-.676.388h-9.967a.79.79 0 0 1-.681-.393.79.79 0 0 1 .004-.785l34.902-59.771c.025-.049.046-.099.071-.15l.001-.002.008.014.001.001 24.22 41.47c.001-.001.856-1.472 1.092-1.873l1.698-.331z" clip-path="url(#F)" style="fill:#fff;fill-opacity:1;fill-rule:nonzero;stroke:none" transform="matrix(1.33333 0 0 -1.33333 0 1121.779)"></path><path d="M335.35 452.062a.78.78 0 0 1-.676-.389l-20.887-35.77c2.475-3.98 3.85-8.476 4.031-13.269l28.154 48.213a.784.784 0 0 1-.65 1.215h-9.957z" clip-path="url(#G)" style="fill:#fff;fill-opacity:1;fill-rule:nonzero;stroke:none" transform="matrix(1.33333 0 0 -1.33333 0 1121.779)"></path><path d="M273.13 375.413c-3.655 1.941-6.823 4.726-8.295 6.399-2.451 2.794-4.34 6.021-4.877 6.925l-24.865 42.581a.79.79 0 0 1-.676.389h-9.969a.78.78 0 0 1-.679-.396.78.78 0 0 1 .003-.784l40.772-69.821 8.586 14.705z" clip-path="url(#H)" style="fill:#fff;fill-opacity:1;fill-rule:nonzero;stroke:none" transform="matrix(1.33333 0 0 -1.33333 0 1121.779)"></path><path d="M351.119 431.713h-9.973a.79.79 0 0 1-.675-.389l-29.451-50.438-9.077 15.545c-.261.486-1.266 2.256-2.703 4.627-2.836 4.681-8.181 10.322-16.774 10.492h-.001l-5.542-9.489c.494-5.867 4.935-8.445 6.517-9.015l4.349 7.449h.001l23.23-39.783 40.75 69.787a.78.78 0 0 1-.65 1.214" clip-path="url(#I)" style="fill:#fff;fill-opacity:1;fill-rule:nonzero;stroke:none" transform="matrix(1.33333 0 0 -1.33333 0 1121.779)"></path><g style="fill:#d1b03d;fill-opacity:1"><path d="m288.836 553.259-.049 21.091-4.704-14.643z" clip-path="url(#J)" style="fill:#d1b03d;fill-opacity:1;fill-rule:nonzero;stroke:none" transform="matrix(1.33333 0 0 -1.33333 0 1101.779)"></path><path d="m288.787 574.204 4.654-14.448-4.605-6.449z" clip-path="url(#K)" style="fill:#d1b03d;fill-opacity:1;fill-rule:nonzero;stroke:none" transform="matrix(1.33333 0 0 -1.33333 0 1101.779)"></path><path d="m288.836 553.356 19.927 6.4h-15.37z" clip-path="url(#L)" style="fill:#d1b03d;fill-opacity:1;fill-rule:nonzero;stroke:none" transform="matrix(1.33333 0 0 -1.33333 0 1101.779)"></path><path d="m288.836 553.404 7.611-2.618 12.267 8.97z" clip-path="url(#M)" style="fill:#d1b03d;fill-opacity:1;fill-rule:nonzero;stroke:none" transform="matrix(1.33333 0 0 -1.33333 0 1101.779)"></path><path d="m281.223 550.786 7.661 2.57-20.073 6.4z" clip-path="url(#N)" style="fill:#d1b03d;fill-opacity:1;fill-rule:nonzero;stroke:none" transform="matrix(1.33333 0 0 -1.33333 0 1101.779)"></path><path d="m288.787 553.404-12.315-17.309 4.799 14.691z" clip-path="url(#O)" style="fill:#d1b03d;fill-opacity:1;fill-rule:nonzero;stroke:none" transform="matrix(1.33333 0 0 -1.33333 0 1101.779)"></path><path d="M288.836 553.404v-8.242l-12.316-9.018z" clip-path="url(#P)" style="fill:#d1b03d;fill-opacity:1;fill-rule:nonzero;stroke:none" transform="matrix(1.33333 0 0 -1.33333 0 1101.779)"></path><path d="m288.787 553.404 7.611-2.57 4.752-14.545z" clip-path="url(#Q)" style="fill:#d1b03d;fill-opacity:1;fill-rule:nonzero;stroke:none" transform="matrix(1.33333 0 0 -1.33333 0 1101.779)"></path><path d="m288.787 545.162 12.266-8.776-12.364 17.115z" clip-path="url(#R)" style="fill:#d1b03d;fill-opacity:1;fill-rule:nonzero;stroke:none" transform="matrix(1.33333 0 0 -1.33333 0 1101.779)"></path><path d="m284.035 559.708 4.8-6.449-20.072 6.497z" clip-path="url(#S)" style="fill:#d1b03d;fill-opacity:1;fill-rule:nonzero;stroke:none" transform="matrix(1.33333 0 0 -1.33333 0 1101.779)"></path><path d="m288.804 553.442.028-.004.014-.005-6.41-9.036zm.032 4.153.027-4.134-.008-.014v.01zm-.115 16.611.096-20.731-.221.046-.006-.019-.004-.018h.004l.167-.042-.073-.101.013.046-19.829 6.349-.018-.055 19.828-6.354-12.124-17.221.027-.019 12.315 17.355.004.005v.01l-.142 20.749z" clip-path="url(#T)" style="fill:#d1b03d;fill-opacity:1;fill-rule:nonzero;stroke:none" transform="matrix(1.33333 0 0 -1.33333 0 1101.779)"></path></g></g><!-- source: https://football-logos.cc --></svg>