<svg xmlns="http://www.w3.org/2000/svg" xmlns:xlink="http://www.w3.org/1999/xlink" xml:space="preserve" id="Layer_1" x="0px" y="0px" version="1.1" viewBox="0.0 0.0 80.0 80.0" width="316.22776601683796" height="316.22776601683796"><style>.st2{fill:#05a4c2}</style><defs><path id="SVGID_1_" d="M0 0h80v80H0z"/></defs><clipPath id="SVGID_00000008137295724329564850000014844269614300067259_"><use xlink:href="#SVGID_1_" style="overflow:visible"/></clipPath><g style="clip-path:url(#SVGID_00000008137295724329564850000014844269614300067259_)"><path d="M40 79.3c0-.1.1-.1 0 0 .2-.1.2-.2.3-.3l14.5-14.5c4.8-4.8 9.7-9.6 14.5-14.5l1.9-1.9 7.9-7.9.2-.2v-.1l-.2-.2C68.3 29 57.6 18.3 46.8 7.5L40.2.9 40 .7h-.1l-.2.2-24 24L.8 39.8l-.1.1c-.1.1-.1.1 0 .2l.3.3L30.6 70l9.1 9.1c.1 0 .2.1.3.2-.1-.1 0 0 0 0" style="fill:#fff"/><path d="M40 0c.2.1.3.2.4.3 1.5 1.5 3 2.9 4.4 4.4C56.4 16.4 68.1 28 79.7 39.6l.3.3v.2l-.2.2C76.4 43.7 73 47 69.7 50.4L40.4 79.7l-.3.3c-.1 0-.1 0-.2-.1-.1 0-.1-.1-.1-.1L18.4 58.4.3 40.3l-.2-.2C0 40 0 40 0 39.9l.2-.2 7.4-7.4 21.8-21.8L39.6.3c.2-.1.2-.2.4-.3q-.15 0 0 0m0 79.3c0-.1.1-.1 0 0 .2-.1.2-.2.3-.3l14.5-14.5c4.8-4.8 9.7-9.6 14.5-14.5l1.9-1.9 7.9-7.9.2-.2v-.1l-.2-.2C68.3 29 57.6 18.3 46.8 7.5L40.2.9 40 .7h-.1l-.2.2-24 24L.8 39.8l-.1.1c-.1.1-.1.1 0 .2l.3.3L30.6 70l9.1 9.1c.1 0 .2.1.3.2-.1-.1 0 0 0 0" class="st2"/><path d="M74.9 39.2h-6.6000000000000005c-.1 0-.2 0-.2-.1L68 39 57 28c-.3-.4-.7-.7-1.1-1.1-.1-.1-.1-.2-.1-.4l.3-1.2c.2-.6.3-1.2.5-1.7v-.1c0-.1 0-.2-.1-.3l-.4-.4-1.2-1.2-.1-.1c-.1-.1-.1-.1-.2-.1h-.1c-.9.2-1.8.5-2.6.7-.1 0-.3.1-.4.1s-.2 0-.2-.1l-.6-.6c-1.5-1.4-3-2.9-4.4-4.4-1.5-1.5-3-2.9-4.4-4.4l-1-1c-.1-.1-.2-.2-.2-.4V2.5c.1 0 .1.1.2.2l17.7 17.7C64.8 26.7 71 32.9 77.1 39c.1.1.2.1.2.2-.1.1-.2 0-.3 0-.7.1-1.4 0-2.1 0M39.3 7.2v4.2c0 .3 0 .3-.2.6L29 22.1l-.2.2c-.1.1-.1.1-.2.1-.2 0-.3-.1-.5-.1l-2.4-.6c-.1 0-.2-.1-.4-.1-.1 0-.2 0-.3.1l-.3.3-1.3 1.3c-.2.2-.2.2-.1.5.3 1 .5 2 .8 2.9.1.3.1.3-.1.6l-12 12-.1.1c-.1.1-.1.1-.2.1H2.9v-.1c0-.1.1-.1.1-.2l2.7-2.7C16.7 25.2 27.8 14.1 38.9 3l.2-.2h.1v.30000000000000004c.1 1.3.1 2.7.1 4.1M40.7 72.8v-4.1c0-.3 0-.3.2-.5C50 59 59 50 68 41c.3-.3.2-.2.6-.2h8.600000000000001s.1.1 0 .1c0 .1-.1.1-.2.2l-3.5 3.5C62.8 55.3 51.9 66.1 41.1 77l-.3.3h-.1v-4.5m13.9-12.4c.1 0 .2 0 .2-.1l.2-.2c.2-.2.2-.2 0-.4l-1.3-1.3c-.4-.3-.3-.3-.6 0v.2c.3.3.5.6.8.8l.1.1h-.1l-1.2-.3h-.1c-.1 0-.2 0-.3.1l-.2.2c-.2.2-.2.2 0 .4l1.3 1.3c.3.3.2.3.6 0v-.30000000000000004l-.8-.8-.1-.1h.1l1.2.3c.1.1.1.1.2.1m-4.5 1.7c-.7 0-1.3.6-1.3 1.3s.6 1.3 1.3 1.3c.8 0 1.3-.6 1.3-1.3-.1-.7-.7-1.3-1.3-1.3m14.5-11.6c0-.1 0-.1-.1-.1l-.8-.8-.1-.1h-.1l-.1.1-.5.5-.1.1h-.1l-.1-.1q-.15-.15 0-.3l.5-.5.1-.1v-.1l-.2-.2h-.1l-.1.1-.9.9-.1.1v.1l.1.1.8.8.1.1h.1l.1-.1.5-.5.1-.1h.1c.1 0 .2.2.2.2v.1l-.1.1-.5.5-.1.1v.1l.3.3h.1l.1-.1.9-.9q-.15-.15 0-.3c0 .1 0 0 0 0m-3.2 3.2c0-.1 0-.1-.1-.1l-.8-.8-.1-.1h-.1l-.1.1-.5.5-.1.1h-.1c-.1 0-.2-.1-.2-.2v-.1l.1-.1.4-.4c.3-.2.3-.2 0-.5q-.15-.15-.3 0l-1 1-.1.1c-.1.1-.1.1 0 .2l.1.1.8.8.1.1h.1l.1-.1.5-.5.1-.1h.1s.1 0 .1.1q.15.15 0 .3l-.5.5-.1.1v.1l.2.2h.1s.1 0 .1-.1l.9-.9c.2-.2.3-.2.3-.3m8.4-9.7c.1.1.2.1.2.1.1.1.1.1 0 .2l-.5.5-.1.1v.1c.1.1.1.2.2.2.1.1.1.1.2 0l.1-.1.9-.9.1-.1c.1-.1.1-.1 0-.2l-.1-.1-.7-.7c-.2-.2-.2-.2-.4 0l-.5.5c-.1.1-.1.1-.2 0s-.1-.1 0-.2l.1-.1.4-.4.1-.1v-.1l-.3-.3h-.1l-.1.1-.9.9-.1.1c-.1.1-.1.1 0 .2l.9.9c.1.1.1.1.2 0l.5-.5c-.1 0 0 0 .1-.1-.1 0 0 0 0 0m-2.1 3.4s0-.1 0 0l-.3-.3c-.1-.1-.1-.1-.2 0l-.5.5c-.2.2-.2.2-.3 0l-.1-.1v-.1l.1-.1.4-.4.1-.1v-.1c-.1-.1-.1-.2-.2-.2-.1-.1-.1-.1-.2 0s-.3.2-.4.4l-.1.1h-.1l-.1-.1q-.15-.15 0-.3l.5-.5c.2-.2.2-.2 0-.4s-.2-.2-.4 0l-.9.9-.1.1v.1l1.5 1.5c.1.1.1.1.3 0l.9-.9c0 .1.1.1.1 0m-10.6 9.8c-.1-.1-.1-.1-.2-.1-.1-.1-.1-.1 0-.2l.4-.4c.3-.3.3-.2 0-.5-.1-.1-.1-.1-.3 0l-.1.1-.4.4q-.15.15-.3 0l-.1-.1v-.1c0-.1.1-.1.1-.2l.5-.5c.1-.1.1-.1 0-.2l-.2-.2c-.1-.1-.1-.1-.2 0l-1 1c-.1.1-.1.1 0 .2l1.5 1.5c.1.1.1.1.3 0l.9-.9.1-.1v-.1l-.2-.2h-.1c-.1 0-.1.1-.2.1zq.15 0 0 0M44.8 70.3c.1 0 .1 0 .1-.1l.9-.9.1-.1v-.1l-.2-.2c-.1-.1-.1-.1-.2 0l-.4.4c-.2.2-.2.2-.4 0l-1-1-.1-.1c-.1-.1-.1-.1-.2 0l-.3.3v.1l.1.1 1.4 1.4zm3.3-3.3c-.1-.1-.1-.1-.1-.2l-1.4-1.4-.1-.1h-.1l-.3.3v.1l.1.1 1.4 1.4.1.1h.1q.15 0 .3-.3M7.2 40.7h4.3c.1 0 .2 0 .2.1l.1.1L32 61.1l6.9 6.9c.3.3.2.2.2.6v8.600000000000001c0 .1-.1.1-.1.1-.1 0-.1-.1-.2-.2L37 75.3C26.1 64.2 15 53.2 4 42.1L2.9 41l-.1-.1-.1-.1c0-.1.1-.1.2-.1h4.3m16.5 18.1c0 .1 0 .1.1.2l.2.2c.2.2.2.2.4 0l1.3-1.3.1-.1v-.1l-.3-.3h-.2c-.2.2-.5.4-.7.7l-.1.1V58c0-.1.1-.3.1-.4.1-.3.1-.6.2-.8v-.2l-.2-.2c-.1-.1-.1-.1-.2 0L23 57.8l-.1.1v.1l.3.3h.2l.8-.8v.2c-.1.4-.2.7-.3 1.1-.2-.1-.2 0-.2 0m-7.4-10.5c0-.1 0-.2-.1-.2 0-.1-.1-.1-.2-.2-.2-.2-.2-.2-.4 0l-1.3 1.3-.1.1v.1c.1.1.1.2.2.2.1.1.1.1.2 0l.8-.8.1-.1v.2c-.1.4-.2.8-.3 1.1-.1.2-.1.2.1.4l.1.1c.1.1.3.1.4 0l1.3-1.3.1-.1q.15-.15 0-.3l-.2-.2c-.1-.1-.1-.1-.2 0l-.8.8-.1.1v-.2c.1-.4.2-.7.3-1.1 0 .2.1.1.1.1m6.3 6.6c0-.8-.8-1.4-1.5-1.2-.1 0-.3.1-.4.2-.3.2-.5.5-.5.8-.1.6.1 1 .6 1.3q.6.45 1.2 0c.4-.2.6-.6.6-1.1m-9.8-9.7c-.6 0-1.2.4-1.2 1.2 0 .7.6 1.2 1.2 1.3.7 0 1.3-.6 1.3-1.2 0-.8-.6-1.3-1.3-1.3m5.6 8c.5 0 .8-.2 1-.6.3-.4.2-.9-.1-1.3l-.6-.6h-.2l-.1.1-.5.5-.4.4c-.2.2-.4.4-.5.6-.1.1-.1.1 0 .2l.6.6c.3 0 .6.1.8.1M30 62.4c0-.3-.1-.5-.3-.8-.3-.4-.9-.6-1.3-.4-.6.2-.9.7-.9 1.2 0 .4.1.7.4 1s.7.4 1.1.3c.1 0 .1 0 .2-.1.1 0 .1-.1 0-.2l-.2-.2c.1-.2 0-.2-.1-.2h-.4c-.3-.1-.4-.4-.4-.7.1-.3.3-.6.6-.6.2 0 .4 0 .5.2.2.2.3.4.2.6 0 .1 0 .2.1.2l.2.2h.1c.2-.2.2-.4.2-.5m6.2 5.8c0-.1 0-.1-.1-.2s-.1-.2-.2-.2c-.1-.1-.1-.1-.2 0v.1c-.1.4-.3.8-.4 1.2-.1.2-.1.3-.3.5l-.3.3v.1l.3.3h.1l.2-.2c.2-.2.4-.3.7-.4.4-.1.7-.2 1.1-.4.1 0 .1 0 .2-.1v-.1c-.1-.1-.1-.2-.2-.2-.1-.1-.2-.1-.4-.1-.2.1-.3.1-.5.2H36c-.1 0-.1 0-.1-.1v-.2c.1-.2.1-.3.2-.5.1.1.1 0 .1 0m-2.8-2.1c0 .1-.1.1-.1.1l-1 1s-.1.1-.1.2v.1c0 .1.1.1.1.2.2.2.2.2.3 0l.9-.9s.1-.1.2-.1h.2c.1 0 .1.1.1.1.3.3.2.3.5 0q.15-.15 0-.3l-1-1-.1-.1h-.1l-.2.2c-.1.1-.1.1 0 .2l.2.2c0-.1 0 0 .1.1q0-.15 0 0M10 45.2s.1 0 0 0c.2-.1.2-.2.3-.3v-.1l-.1-.1-.4-.4c-.1-.1-.1-.1 0-.2l.1-.1.9-.9c.2-.2.2-.2 0-.4s-.2-.2-.3 0c-.5.4-1 .9-1.4 1.3l-.1.1v.2l.1.1.8.8c0-.1 0 0 .1 0M32.1 64c-.1-.1-.1-.2-.1-.2-.2-.2-.2-.2-.4 0l-1.3 1.3-.1.1v.1l.2.2c.1.1.1.1.3 0l1.3-1.3s0-.1.1-.2M35.5 36.5v4.4c0 .1.1.2.2.2.2.1.5.1.7.2 1 .3 2 .5 2.9.8.2 0 .3.1.5.1h.4c.4-.1.9-.2 1.3-.4.7-.2 1.4-.4 2-.6.2-.1.4-.1.6-.2h.1c.1 0 .2-.1.2-.2V32c0-.1 0-.2.2-.2.1 0 .2 0 .3-.1 1.1-.2 2.2-.5 3.3-.7 1-.2 2.1-.5 3.1-.7 1.1-.2 2.2-.5 3.3-.7.1 0 .3-.1.5-.1.1 0 .1 0 .1.1.1.3 0 .6 0 .9 0 .1 0 .1-.1.2 0 0-.1 0-.1.1-.3.1-.5.3-.8.4l-2.4 1.2c-.5.3-1.1.6-1.6.8l-1.8.9c-.5.3-1.1.6-1.6.8-.3.1-.5.3-.8.4h-.1c-.1 0-.1.1-.1.2v5.1000000000000005c0 .3.1.3-.3.6-.2.2-.5.4-.7.6l-.8.8c-.5.4-.9.9-1.4 1.3l-.3.3c-.1.1-.1.2-.1.3 0 .2-.1.4-.1.7-.1.6-.1 1.2-.2 1.8 0 .3-.1.6-.1.9s-.1.7-.1 1v.1c0 .1 0 .1.1.1s.3.1.4.1c.9.3 1.9.7 2.8 1 .6.2 1.3.5 1.9.7.7.3 1.4.5 2.1.8.2.1.5.2.7.2h.1v.1c0 .1-.1.1-.1.2-.4.4-.8.8-1.3 1.2l-.6.6c-.3.3-.7.6-1 1-.1.1-.1.1-.2 0 0 0 0-.1-.1-.1-.2-.5-.4-1.1-.6-1.6-.1-.4-.1-.3-.4-.3-1-.2-2.1-.4-3.1-.5-.5-.1-1.1-.2-1.6-.3h-1c-.3 0-.5 0-.8.1-.7.1-1.3.2-2 .3-.8.1-1.5.3-2.3.4-.1 0-.3 0-.4.1-.1 0-.2.1-.2.1 0 .1-.1.2-.1.3-.2.5-.4 1.1-.6 1.6-.1.2-.1.2-.3.1l-.7-.7c-.7-.7-1.5-1.4-2.2-2.2l-.1-.1v-.1c.1 0 .1-.1.2-.1 1-.4 2-.7 3-1.1 1.3-.5 2.5-.9 3.8-1.4.3-.1.5-.2.8-.3.1 0 .1 0 .2-.1.2-.1.2-.1.2-.3 0-.4-.1-.7-.1-1.1-.1-.5-.1-.9-.2-1.4 0-.3-.1-.7-.1-1s-.1-.6-.1-.9c0-.2-.1-.3-.2-.4l-.6-.6c-.3-.2-.5-.5-.8-.7-.4-.4-.9-.8-1.3-1.2-.2-.2-.4-.4-.6-.5-.1-.1-.1-.2-.1-.3v-5.1000000000000005c0-.4 0-.3-.3-.5l-1.8-.9c-.7-.4-1.4-.7-2-1.1-.3-.1-.6-.3-.8-.4-.5-.3-1.1-.6-1.6-.8-.6-.3-1.3-.7-1.9-1-.2-.1-.3-.2-.5-.3-.1 0-.1-.1-.2-.1-.2-.1-.2-.1-.2-.4v-.7c0-.2 0-.2.2-.1.1 0 .2 0 .3.1l2.7.6c.5.1 1.1.2 1.6.4.7.2 1.5.3 2.2.5s1.4.3 2.2.5c.4.1.8.2 1.3.3.3.1.3.1.3.4-.2 1.6-.2 3-.2 4.4" class="st2"/><path d="M55.3 39.5v3.2c0 .1 0 .2-.1.2l-.1.1-5.2 5.2-.2.2h-.1v-1.7000000000000002c0-.1.1-.2.2-.3.3-.3.6-.5.9-.8s.6-.5.8-.8l.1-.1c.1-.1.2-.2.1-.3v-4.6000000000000005c0-.1 0-.3.2-.4l.7-.7c.8-.8 1.6-1.7 2.4-2.5l.2-.2h.1v3.5M24.7 39.5v-3.4c.1 0 .1.1.2.2l1.4 1.4 1.8 1.8c.1.1.2.2.2.4v4.4c0 .2 0 .3.2.4.2.2.5.4.7.6h.1c.3.3.6.6 1 .9.1.1.1.2.1.3v1.8h-.1l-.1-.1c-1.7-1.8-3.5-3.5-5.2-5.3l-.1-.1c-.1-.1-.1-.1-.1-.2v-.2c-.1-.8-.1-1.9-.1-2.9M47.1 22s0 .1 0 0l-.7.7-.1.1-1 1c-.5.5-1 .9-1.5 1.4-.4.4-.8.8-1.3 1.2-.4.4-.9.8-1.3 1.2-.4.3-.7.7-1.1 1l-.1.1h-.1l-.3-.3-1-1c-.5-.4-.9-.9-1.4-1.3L36 24.9c-.3-.3-.6-.6-1-.9l-.7-.7c-.4-.4-.8-.8-1.3-1.2l-.1-.1c0-.1.1 0 .2 0 .6.3 1.3.6 1.9.9.5.2 1 .5 1.5.7s1 .5 1.6.7c.6.3 1.2.5 1.8.8h.3c.5-.2.9-.4 1.4-.6.6-.3 1.1-.5 1.7-.8.5-.2 1-.5 1.6-.7.6-.3 1.1-.5 1.7-.8.2-.1.4-.2.5-.2-.1 0 0 0 0 0M59.1 45.4q0-.15 0 0c0-.2 0-.2.1-.3.3-.6.6-1.3.9-1.9.4-.8.7-1.6 1.1-2.3l.3-.6c.1-.1.1-.2 0-.4-.1-.3-.3-.6-.4-.8-.3-.6-.5-1.1-.8-1.7-.4-.8-.7-1.5-1.1-2.3-.1-.1-.1-.2-.1-.3l.2.2c.5.5 1 1.1 1.6 1.6.6.6 1.1 1.2 1.7 1.7.5.5 1 1 1.5 1.6.1.1.1.1.1.2v.2c-.1.2-.3.3-.4.5-.2.3-.5.5-.7.8-.5.6-1.1 1.1-1.7 1.7l-1.2 1.2-1 1c0-.2-.1-.1-.1-.1M20.9 45.4c-.1 0-.1 0-.2-.1l-.8-.8-.9-.9c-.6-.7-1.3-1.3-1.9-2l-1.2-1.2-.2-.2c-.1-.1 0-.1 0-.2l.1-.1 1.1-1.1c.5-.6 1.1-1.1 1.6-1.6l1.2-1.2c.3-.4.7-.7 1-1.1 0 0 .1-.1.2-.1 0 .1 0 .1-.1.2-.3.6-.5 1.1-.8 1.7-.1.3-.2.5-.4.8-.3.7-.7 1.5-1 2.2-.1.1-.1.2-.2.4v.3l.3.6c.3.6.6 1.3.9 1.9s.5 1.2.8 1.7c.3.1.4.4.5.8q0-.15 0 0M43.1 60.7c-.1.1-.1.1-.1.2-.3.3-.6.6-1 .9-.4.4-.8.8-1.3 1.2-.2.2-.4.4-.7.6h-.2l-.1-.1-.9-.9c-.6-.6-1.2-1.2-1.9-1.8l-.2-.2v-.1h.1c.1.1.3.1.4.2.6.3 1.2.6 1.8.8.2.1.5.2.7.3q.15.15.3 0c.3-.1.5-.3.8-.4.7-.3 1.4-.6 2-.9.2.2.3.2.3.2 0-.1 0 0 0 0M50.1 64.1c-.4 0-.8-.3-.8-.7s.3-.8.7-.7c.5 0 .8.4.8.8-.1.3-.5.6-.7.6M21.4 54.2c.4 0 .7.3.7.7s-.3.7-.7.7c-.3 0-.7-.3-.7-.7 0-.3.3-.7.7-.7M13.6 46.4c0 .4-.4.7-.7.7-.2 0-.4-.1-.5-.3-.2-.3-.2-.6.1-.9.1-.1.2-.2.3-.2.3-.1.8.3.8.7M19.1 52c0 .5-.5.8-1 .6l-.3-.3v-.2l.7-.7c.1-.1.1-.1.2 0l.2.2c.2.1.2.3.2.4" class="st2"/></g></svg>