<svg xmlns="http://www.w3.org/2000/svg" xml:space="preserve" viewBox="8.54 8.25 291.4 422.36"><metadata xmlns:fl="https://football-logos.cc/malaysia/johor-darul-tazim">dl1_4434f133b211d9296166ab4bce7c6bc6933ad199f10f0bc0d1e66ce846c32cbf</metadata><!-- Source: https://football-logos.cc --><rect width="100%" height="100%" fill="none" data-source="https://football-logos.cc"></rect><g class="currentLayer" data-source="https://football-logos.cc"><g stroke-width="0"><path d="M154.236 70.824C65.198 100.47 8.536 80.26 8.536 80.26v128.5c0 159.503 145.7 221.85 145.7 221.85s145.698-62.347 145.698-221.85V80.26s-56.662 20.21-145.698-9.435M182.462 27.91H161.39L154.23 8.247l-7.156 19.663h-21.073l16.743 11.888-6.938 19.064 18.424-10.91 18.432 10.91-6.945-19.064zM105.988 27.91H84.912L77.756 8.247 70.597 27.91H49.52l16.75 11.888-6.94 19.064 18.426-10.91 18.428 10.91-6.946-19.064zM258.944 27.91h-21.076l-7.159-19.663-7.159 19.663h-21.073l16.748 11.888-6.941 19.064 18.425-10.91 18.427 10.91-6.94-19.064z" style="fill:#2f3592;fill-opacity:1;fill-rule:nonzero;stroke:none"></path><path d="M72.286 171.198q-.825 1.05-1.618 1.034a.76.76 0 0 1-.662-.376l-5.097-9.266q-.28-.408-.197-1.098a3.64 3.64 0 0 1 .782-1.86l16.612-21.202q.608-.818 1.727-1.394 1.118-.575 2.055-.578l11.224-.028q1.263-.005 1.15.985-.055.454-.445.988zM119.29 140.41q.386-.54.44-1.002.109-.998-1.148-.996-.936.001-2.05.584c-.75.391-1.323.866-1.728 1.42l-10.675 13.907q-.391.535-.448.988-.108.993 1.15 1.001.936.009 2.057-.564 1.116-.573 1.728-1.4zm16.496-4.042c.876-.002 1.271.334 1.195 1.004-.032.311-.183.646-.439 1.011l-13.746 18.064q-.615.832-1.732 1.408-1.119.575-2.007.57l-31.432-.27q-1.313-.011-1.197-.996.053-.45.441-.981l13.752-17.738q.612-.825 1.727-1.405 1.12-.582 2.01-.584zM173.296 136.271q1.305-.006 1.198 1.023-.057.472-.49 1.03l-13.698 18.404c-.434.566-1.024 1.043-1.749 1.434q-1.098.589-2.032.58l-11.227-.095q-1.307-.012-1.197-1.025.055-.464.49-1.012l12.16-16.223q.435-.553.49-1.017.11-1.022-1.197-1.02-.935.002-2.026.6c-.73.397-1.31.877-1.749 1.444l-12.161 16.188q-.658.836-1.754 1.416-1.096.579-2.029.57l-11.232-.094q-1.313-.012-1.199-1.014.056-.461.491-1l25.521-33.818q.827-1.108 1.62-1.116c.284-.002.483.125.615.374l5.143 9.531q.236.425.153 1.145a3.97 3.97 0 0 1-.779 1.955q-.328.426-.369.81c-.076.647.355.973 1.29.97zM196.46 140.362q.387-.56.44-1.038.116-1.039-1.148-1.037c-.62 0-1.308.203-2.05.608q-1.118.607-1.726 1.473l-10.668 14.455q-.393.558-.448 1.028c-.078.688.31 1.035 1.15 1.041q.94.006 2.052-.588 1.123-.593 1.73-1.454zm16.497-4.196q1.31-.005 1.197 1.044-.05.48-.442 1.05l-13.739 18.767q-.61.864-1.73 1.463-1.119.598-2.006.59l-31.435-.268q-1.306-.012-1.194-1.034.05-.472.441-1.02l13.741-18.443q.613-.856 1.731-1.461 1.116-.603 2.008-.606zM250.422 136.067q1.306-.005 1.196 1.063c-.036.328-.196.682-.492 1.068l-3.02 4.264q-.614.889-1.728 1.508-1.122.619-2.056.618l-11.226-.014c-.84-.002-1.227-.358-1.15-1.06.038-.323.182-.676.442-1.058l1.538-2.114q.386-.575.44-1.059.113-1.058-1.197-1.056c-.595 0-1.261.208-2.01.619q-1.117.618-1.726 1.496l-12.227 16.796c-.408.585-.986 1.084-1.73 1.488q-1.12.609-2.05.601l-11.206-.097q-1.258-.01-1.146-1.052.053-.477.44-1.039l13.696-18.783q.659-.876 1.752-1.489 1.094-.615 2.032-.616zM106.118 126.864l-6.64-2.608.178-7.082-4.69 5.31-6.64-2.609 3.802 5.82-4.546 5.15 7.16-1.16 4.458 5.72.17-6.866zM112.242 161.878l-3.572 3.68h.98l3.554-3.68zm-2.12 4.878h-6.129l5.855-6.1h6.132q.728 0 1.101.086.333.073.37.204.097.117-.02.296a2.3 2.3 0 0 1-.322.324l-4.243 4.438c-.277.3-.685.507-1.214.62a8 8 0 0 1-1.53.132M120.456 163.09h.865l1.15-1.22h-.951zm-7.13 3.658 5.1-5.273q.428-.397.908-.615c.322-.142.884-.212 1.695-.212h3.792c.488 0 .857.014 1.116.044q.424.05.583.168.138.142.014.4-.14.227-.537.61l-4.635 4.892h-3.593l2.388-2.439h-.98l-2.299 2.439zM130.905 161.883l-1.221 1.21h.968l1.13-1.21zm-8.164 4.873 5.783-6.105h5.362q1.04.01 1.47.193c.324.127.46.346.396.656l-2.058 2.062a1.6 1.6 0 0 1-.528.342 5 5 0 0 1-.622.203q-.336.083-.635.144-.296.038-.501.072l.06 2.433h-3.462l.051-1.922-1.781 1.922zM146.17 160.655l-5.833 6.093h-5.457c-.984 0-1.543-.096-1.69-.29q-.208-.284.312-.855l4.676-4.948h3.555l-4.695 4.875h1.036l4.495-4.875zM141.65 166.748l5.812-6.112h3.667l-4.723 4.894h3.206l-1.162 1.218zM160.826 166.734h-3.432l4.58-4.89H160.3l1.116-1.202h6.918l-1.14 1.201h-1.758zM170.977 163.074h.865l1.151-1.219h-.95zm-7.13 3.66 5.098-5.274q.434-.395.913-.614.475-.212 1.694-.212h3.79q.733 0 1.111.045.434.048.587.167.137.142.016.4c-.092.152-.275.354-.538.61l-4.634 4.891h-3.595l2.387-2.437h-.98l-2.3 2.437zM181.636 162.463q-1.113.29-1.504.215c-.214-.054-.227-.198-.03-.43l1.276-1.337a.9.9 0 0 1 .446-.204q.281-.066.71-.07h1.815q.33.004.461.12.167.085-.088.311l-.662.67a1 1 0 0 1-.308.216q-.178.05-.614.142zM196.892 160.642l-1.094 1.213-7.266 3.673h4.021l-1.167 1.206h-7.858l1.086-1.206 7.271-3.673h-4.021l1.081-1.205zM192.666 166.747l5.803-6.105h3.564l-5.84 6.105zM201.893 166.747l4.625-4.883h-1.198l-4.586 4.883h-3.42l5.703-6.097h10.047q1.25.007 1.681.261c.253.165.157.483-.275.953l-4.478 4.883h-3.44l4.613-4.883h-1.285l-4.574 4.883z" style="fill:#fff;fill-opacity:1;fill-rule:nonzero;stroke:none"></path><path d="M281.51 210.23c0 141.19-127.274 196.38-127.274 196.38S26.957 351.42 26.957 210.23V102.28c71.608 12.26 127.279-11.824 127.279-11.824s55.666 24.083 127.274 11.823zM154.236 81.944C71.6 109.458 19.012 92.836 19.012 92.836v117.126c0 148.036 135.224 205.904 135.224 205.904s135.222-57.868 135.222-205.904V92.836s-52.589 16.622-135.222-10.892" style="fill:#ec1e27;fill-opacity:1;fill-rule:nonzero;stroke:none"></path><path d="M273.994 209.144V110.99a263 263 0 0 1-31.28 1.845c-43.833 0-76.893-10.613-88.478-14.912-11.583 4.299-44.646 14.912-88.492 14.912-10.49 0-20.966-.61-31.28-1.845v98.154c0 56.852 20.728 106.3 61.574 146.943 24.042 23.916 48.412 37.672 58.198 42.659 9.785-4.987 34.156-18.743 58.181-42.659 40.863-40.644 61.577-90.09 61.577-146.943m7.514-106.857v107.945c0 141.189-127.272 196.378-127.272 196.378S26.949 351.42 26.949 210.232V102.287c71.605 12.247 127.287-11.83 127.287-11.83s55.665 24.077 127.272 11.83" style="fill:#fff;fill-opacity:1;fill-rule:nonzero;stroke:none"></path><path d="m183.982 181.662 1.168 3.674s-9.354-12.194-32.07-9.188c0 0 20.21-7.684 39.921 9.188 0 0-7.015-3.842-9.019-3.674m7.683 21.378s-9.855.67-11.192-.834c-1.336-1.503 1.839-2.504 3.51-2.338 0 0-1.84-1.337-6.515-.334 0 0 3.625-9.855-4.479-11.859 0 0 1.973 6.292.052 9.604-1.923 3.312-3.035-1.03-2.701-3.145.334-2.118-2.339-7.907-8.13-8.13 0 0 .782-2.782 4.678-1.892 0 0-9.464-8.017-23.607.055 0 0-1.225-4.344 6.957-5.179 8.188-.834 24.222 1.17 27.9 6.348h-5.849s12.163 4.37 13.03 12.387c0 0 1.669-4.036 1.169-6.207 0 0 7.516 2.782 5.177 11.524m-36.079-14.697h2.84v-3.007c2.172 4.175 5.511 12.862 4.008 10.356-1.502-2.505-6.848-7.349-6.848-7.349m5.846 14.697-7.495-11.524 1.65.836s6.762 6.847 7.222 10.688zm-47.102-.666c-3.565-1.559-2.006-7.796-2.006-7.796-6.234 4.456-3.34 12.27-3.34 12.27h-4.23s1.111 3.096-.226 3.096-6.456 2.006-6.456 2.006c1.336-.444 3.934-3.786 3.934-3.786h-3.934c.442-2.449 6.456-6.013 6.456-6.013 11.136-22.94 35.412-18.264 35.412-18.264-25.834.224-25.61 18.487-25.61 18.487m117.87 10.69c-6.626-17.706-29.678-24.053-29.678-24.053s-19.04-14.365-34.91-16.87c-15.868-2.506-25.89 4.677-25.89 4.677-26.224-2.172-36.414 9.018-36.414 9.018 12.193-7.516 24.388-4.844 24.388-4.844-19.71 1.838-28.063 17.04-28.396 15.368-.334-1.669 1.168-7.517 1.168-7.517l-8.35 6.681 5.178-6.68c-14.7 5.344-29.734 27.06-33.242 32.071-3.505 5.01-11.69 6.013-11.69 6.013 5.51 6.682 19.041 4.45 19.041 4.45-2.839 9.794-4.176 29.458-4.01 31.628.167 2.172 3.677 13.698 6.302 9.021s2.425-14.712 2.425-14.712l-1.618-2.032c-2.984-18.59 3.25-30.192 3.25-30.192.834-.67 3.506 1.837 3.506 1.837 6.348-5.846 6.013-8.185 6.013-8.185-2.003 1.168-6.013.835-6.013.835l6.013-7.015-3.173.167c1.837-6.85 5.844-7.683 5.844-7.683-2.503 5.01 1.838 5.087 1.838 5.087 1.84 1.58-1.838 8.61-1.838 8.61 1.172 1 5.012 0 5.012 0 5.346-5.013 14.868-6.348 17.205-3.342s4.843 3.341 4.843 3.341 1.002-1.336 3.842-2.412 3.174-3.268 3.174-3.268c0-4.844.501-13.028.501-13.028l-.501-1.337c-.5.336-2.012 1.337-2.012 1.337-1.678-3.007 4.35-13.195 4.184-9.69-.167 3.51-.334 8.689 1.838 6.683 2.171-2.005 9.355-7.349 7.85-4.344-1.503 3.008-10.524 10.024-10.356 11.471s1.17 8.908-.334 10.745c-1.504 1.838-5.846 4.344-.834 3.843 5.01-.501 14.864.501 17.702 3.77 2.842 3.273 3.676.906 3.676.906 10.023-10.188 20.422-5.513 18.931-8.184-1.492-2.67 0-2.672 0-2.672 2.393 2.004 3.62.053 3.62.053 7.183-11.133 20.657-5.788 23.775-5.344 3.116.446 4.006-2.225 4.006-2.225l.894-8.687c5.79 1.783 11.136 10.244 11.136 10.244h-6.907c5.792 4.232 3.79 13.934 3.79 13.934 4.453-.544 12.025 7.558 12.025 7.558.666-4.12-8.908-16.368-8.908-16.368 3.562-3.564 6.457 1.335 6.457 1.335 5.123 8.019 10.245 21.825 11.75 16.321 1.509-5.504-3.891-15.8-3.891-15.8zM132.813 350.478s3.119 10.244 13.363 11.356c10.245 1.114 37.638-2.003 40.98-11.356 3.341-9.355 3.008-9.688 5.342-6.235 2.34 3.45 2.675 16.255-7.348 23.716-10.02 7.462-21.562 9.134-31.213 8.91-9.655-.224-23.128-7.683-23.35-24.834 0 0 .782-2.336 2.226-1.557" style="fill:#fff;fill-opacity:1;fill-rule:nonzero;stroke:none"></path><path d="M148.514 355.375s6.571-4.34 11.806-5.009c5.233-.667 21.27 2.56 21.38-6.235 0 0 2.113-18.374-1.448-13.253-3.563 5.122-6.795 14.144-10.69 14.586-3.898.446-10.358 1.45-11.805 1.896-1.445.443-8.24 1.003-17.26-10.245-9.02-11.246-.555 20.823 8.017 18.26M170.285 279.711s6.368-1.505 12.037 0l-1.514 29.23s-1.838 1.169-10.523-29.23M122.392 289.454s6.084-4.547 11.84-3.439l.081 31.673s-1.152 1.493-11.921-28.234M139.16 284.962s-2.338.37-.444 5.494c1.893 5.123 3.228 2.563 4.9 1.227 1.67-1.339 6.345.668 18.15-1.784 0 0 1.78-.445 3.007 1.115 1.225 1.56 2.896-6.235 1.113-9.13-1.78-2.897-3.785 4.23-5.233 4.898s-15.145 2.226-16.705 1.67c-1.559-.557-1.67-3.306-4.788-3.49M190.83 331.157s.502-13.028 6.18-20.378c5.68-7.35 21.548-6.514 37.248-39.085 0 0 3.343 6.514 6.906 4.733 3.561-1.783 3.116-33.967-13.086-52.673l-1.002-5.01s19.376 12.36 27.228 43.26l-4.678-.333s8.52 24.72-12.694 45.434c0 0-1.336-3.509-2.674-4.843 0 0-8.853 9.686-20.042 11.356-11.192 1.672-16.706 5.68-23.386 17.539M128.192 338.339s-1.67-14.281-12.194-20.628c-10.522-6.348-21.825-.75-43.874-28.033 0 0-2.672 6.348-5.346 6.681-2.669.335-11.914-38.197 5.458-63.92 0 0-19.71 7.83-21.882 52.523l4.846-1.578s0 24.318 6.846 32.955l1.17-4.057s5.344 8.185 15.533 12.026l1.17-5.344s3.34 5.68 15.869 6.514c12.528.836 23.05-1.503 32.404 12.86M133.481 395.69s13.96-1.338 20.456-1.783c0 0-.412-4.901-13.328-12.696-12.917-7.793-21.159-25.687-21.159-25.687s-10.466-7.521-22.717-25.55c0 0-17.561.305-26.727-7.56 0 0 2.007 5.794 15.595 14.256 13.584 8.464 40.976 43.429 47.88 59.02" style="fill:#fff;fill-opacity:1;fill-rule:nonzero;stroke:none"></path><path d="M210.096 368.074v-23.386s7.124-19.95 7.348-28.35c0 0 12.917-5.059 16.482-9.957 0 0 3.784 9.13 4.007 16.034 0 0 3.787-.888 4.232-4.898s-2.895-8.569-2.895-8.569 4.008-6.458 5.79-8.298c1.781-1.839 1.558 8.85 9.244 7.514 0 0-9.912 25.165-44.208 59.91M196.676 306.435s11.024-18.375 7.016-39.419c0 0-.836-18.54-1.003-23.218 0 0 4.623 5.846 7.407 15.533 0 0-.058-7.681 4.621-10.856 0 0 .665-4.844 0-5.512-.67-.67-8.019 1.836-17.039-8.687 0 0 .836-.834 9.02 3.007 8.184 3.843 8.02-7.85 11.691.67 3.675 8.518 2.172 10.189 2.172 10.189s9.437 5.652-4.175 31.901c0 0 1.67-.165 5.011-5.095 3.341-4.926 10.356-19.793 1.17-30.149 0 0 3.229-9.352 1.447-16.703 0 0 8.018 6.126 6.46 20.158-1.558 14.03-.892 23.052-.557 25.278.333 2.227-17.15 23.604-33.241 32.903M87.27 289.063s-8.018-4.175-10.692-10.021c0 0-1.336 8.685 7.351 15.87 8.684 7.18 27.895 15.364 31.903 19.206 0 0-8.854-12.861-9.52-14.864-.668-2.006-5.012-10.023-.836-20.212 0 0-2.73 1.838-6.85 8.853 0 0-3.674-7.684.67-15.201 0 0-13.695-1.168-14.032-16.368 0 0-.334-3.508 2.006-5.679 2.338-2.172 16.367-13.364 16.367-13.364s-.167-1.335-2.505 0c-2.339 1.337-13.026 8.853-14.53 4.01-1.504-4.845-.334-11.694 1.167-11.191 1.504.501 3.841 9.521 12.028 6.013 8.184-3.508 2.17-7.184 2.17-7.184s-7.682-11.024-13.86-4.176c-6.183 6.85-15.371 20.713-6.683 36.581 0 0-.336 6.682-1.839 8.686-1.503 2.005-2.673 9.02 7.685 19.041" style="fill:#fff;fill-opacity:1;fill-rule:nonzero;stroke:none"></path><path d="M130.03 242.907s17.927 9.799 33.516-2.561c0 0 2.84-2.227 3.12 2.282.276 4.511 1.447 13.195-8.409 19.878-9.853 6.681-2.003 11.693-2.003 11.693s4.118 2.505 10.411 1.503 11.636-.196 14.143.234c2.505.435 10.132-1.346 7.35-8.67 0 0 .78-2.867 2.672-4.427s.78-3.23 4.9-4.232c4.118-1.003 31.068-7.125 66.367-9.464l-1.113-1.001s-51.948.716-78.662 13.138c0 0-10.425 3.898-2.628-1.113 7.795-5.012 37.86-16.036 83.295-27.728l-6.459.779s-27.84 6.237-65.7 18.821c0 0-5.234 1.445-1.002-2.45 4.232-3.898 40.588-19.32 70.99-30.846l-8.405 1.559s-36.528 11.805-73.943 33.406c0 0-9.133 6.68-4.008-.112 5.123-6.792 31.516-30.065 65.478-49.44 0 0-8.907 1.335-65.366 39.642 0 0-.666 3.005-7.128-4.566 0 0-1.002-3.12 3.342 1.335 4.344 4.456 4.898-.555 7.573-3.561 2.672-3.007 15.81-11.915 20.71-12.695 4.902-.78-10.02-2.561-14.029-2.896-4.009-.333-25.277-10.467-37.528 5.01 0 0-1.366 1.086-2.453-.667-1.083-1.754-23.132-11.69-39.67 6.681 0 0-.666.752.753 1.67 1.42.92 16.034 14.2 16.368 14.533s2.592 2.924-2.672.334c0 0-7.539-3.58-24.456-5.06l-14.462-3.84-33.574-7.637 48.818 15.033s18.33 4.844 22.338 8.518c4.008 3.676 7.682 5.681-.336 4.177 0 0-5.343-2.005-7.512-2.339-2.172-.334-67.986-5.344-73.162-4.009-5.18 1.336 0 1.17 0 1.17s48.272 1.837 67.982 5.345c0 0 5.513 2.338 5.513 3.508s-63.308.333-70.49 2.673v.75s49.109-.918 75.333-1.085c0 0 11.024 2.102-1.003 2.136-12.027.036-63.307 11.06-69.319 13.732l-.168.835s50.946-10.021 62.806-10.856c0 0 3.51-.445 3.398 2.921-.113 3.371.334 9.495 8.906 7.156 8.574-2.338 6.016-2.786 16.15-3.062 10.131-.279 10.91-7.96 9.128-9.854s-18.484-7.016-18.708-25.057c0 0 .594-2.317 3.008-1.224" style="fill:#fff;fill-opacity:1;fill-rule:nonzero;stroke:none"></path><path d="M119.23 222.287c0 3.207-3.856 5.81-8.612 5.81-4.754 0-8.612-2.603-8.612-5.81 0-3.208 3.858-5.808 8.612-5.808 4.756 0 8.611 2.6 8.611 5.808" style="fill:#fff;fill-opacity:1;fill-rule:nonzero;stroke:none"></path><path d="M111.721 221.415a1.085 1.085 0 1 1-2.17.002 1.085 1.085 0 0 1 2.17-.002" style="fill:#272e73;fill-opacity:1;fill-rule:nonzero;stroke:none"></path><path d="M173.96 219.911s-3.33-5.344 2.342-10.69c5.674-5.345 11.688 0 11.688 0s7.35 9.094-8.52 13.066z" style="fill:#fff;fill-opacity:1;fill-rule:nonzero;stroke:none"></path><path d="M181.09 213.231a1.086 1.086 0 1 1-2.171 0 1.086 1.086 0 0 1 2.171 0" style="fill:#272e73;fill-opacity:1;fill-rule:nonzero;stroke:none"></path><path d="m71.74 332.711-4.667-7.801 5.612 3.901s5 7.875 10.167 12.208 27.5 20.667 42.833 42.5l2.667 7.333-56.667-56.166z" style="fill:#fff;fill-opacity:1;fill-rule:nonzero;stroke:none"></path></g></g><!-- source: https://football-logos.cc --></svg>